<svg xmlns="http://www.w3.org/2000/svg" xmlns:se="http://svg-edit.googlecode.com" xmlns:xlink="http://www.w3.org/1999/xlink" xmlns:dc="http://purl.org/dc/elements/1.1/" xmlns:cc="http://creativecommons.org/ns#" xmlns:rdf="http://www.w3.org/1999/02/22-rdf-syntax-ns#" xmlns:inkscape="http://www.inkscape.org/namespaces/inkscape" width="777" height="480">
                                    <title>my vector image</title>
                                    <!-- Created with Vector Paint - http://www.vectorpaint.yaks.com/ https://chrome.google.com/webstore/detail/hnbpdiengicdefcjecjbnjnoifekhgdo -->
                                    <rect id="backgroundrect" width="100%" height="100%" x="0" y="0" fill="#FFFFFF" stroke="none"/>
                                <g class="currentLayer"><title>Layer 1</title><path fill="#f4810e" stroke="#ffffff" stroke-width="3" stroke-dashoffset="" fill-rule="nonzero" marker-start="" marker-mid="" marker-end="" id="svg_1" d="M379.13569579452815,226.4912109375 C379.13569579452815,226.4912109375 380.1753156552186,222.7090301513672 379.13569579452815,221.4268035888672 C378.1023403628751,220.14337158203125 377.69436081682943,219.291259765625 375.41765390101136,218.68060302734375 S373.9806902556629,218.19000244140625 372.3253320924996,218.25225830078125 C370.6700427692158,218.31454467773438 369.29665275261505,219.10739135742188 369.29665275261505,219.53573608398438 C369.29665275261505,219.53573608398438 368.26691141463743,219.59500122070312 367.8486747265415,219.96250915527344 C367.43408655206076,220.3287811279297 366.7522275452975,222.0345916748047 366.7522275452975,222.4628143310547 S367.0932947284382,225.7589874267578 367.43408655206076,226.36959838867188 L367.02645120541274,226.4912109375 C366.6853151823925,230.02720642089844 368.407413608762,230.4587860107422 368.407413608762,230.4587860107422 C369.0222225728612,233.75563049316406 369.6444318240101,232.35040283203125 369.6444318240101,233.20249938964844 S369.0222225728612,233.75563049316406 369.0222225728612,233.75563049316406 S368.4745324913056,235.09706115722656 367.10010987651185,235.58367919921875 C365.71918189310236,236.06985473632812 358.08680118958364,238.6951141357422 357.46166624355465,239.24501037597656 C356.8395258322853,239.7933349609375 356.91311566350487,242.3556671142578 356.91311566350487,242.3556671142578 L389.6714672571834,242.3556671142578 C389.6714672571834,242.3556671142578 389.73813868051,239.7933349609375 389.1230199369529,239.24501037597656 C388.50118930514145,238.6920166015625 380.857002562283,236.06985473632812 379.4833716061039,235.58367919921875 C378.1023403628751,235.09706115722656 377.5538242027651,233.75563049316406 377.5538242027651,233.75563049316406 S376.93904965860565,234.05783081054688 376.93904965860565,233.20249938964844 S377.5538242027651,233.75563049316406 378.1795787077099,230.4587860107422 C378.1795787077099,230.4587860107422 379.89086927299286,230.02720642089844 379.54983650979193,226.4912109375 L379.13569579452815,226.4912109375 z" class=""/><path fill="#f4810e" stroke="#ffffff" stroke-width="3" stroke-dashoffset="" fill-rule="nonzero" marker-start="" marker-mid="" marker-end="" id="svg_3" d="M377.7325611114502,235.13732528686523 C377.03840827941895,236.49865341186523 375.37706184387207,237.45843124389648 373.42454719543457,237.45843124389648 C371.47203254699707,237.45843124389648 369.80809211730957,236.49865341186523 369.1139087677002,235.13732528686523 L358.5687427520752,238.70769882202148 L361.53782844543457,244.28997421264648 L364.8007068634033,243.18597030639648 L364.8007068634033,254.5658836364746 L382.16539192199707,254.5658836364746 L382.16539192199707,243.22643661499023 L385.3088550567627,244.28997421264648 L388.2769031524658,238.70769882202148 L377.7325611114502,235.13732528686523 z" class=""/><path fill="#f4810e" stroke="#ffffff" stroke-width="3" stroke-dashoffset="" fill-rule="nonzero" marker-start="" marker-mid="" marker-end="" id="svg_5" d="M360.302978515625,218.6563829779625 L374.30279541015625,214.08835929632187 L388.30242919921875,218.6563829779625 L374.30279541015625,223.22468131780624 L360.302978515625,218.6563829779625 z" class="" transform="rotate(1.5087988376617432 374.3027038574196,218.65652465820386) "/><path fill="#f4810e" stroke="#ffffff" stroke-width="3" stroke-dashoffset="" fill-rule="nonzero" marker-start="" marker-mid="" marker-end="" id="svg_7" d="M455.7620907011442,231.95852721692063 C455.7479919027537,231.9312756434083 455.7918141419068,231.91729891253635 455.78052289644256,231.89193938556127 C455.7623958699405,231.87570440559648 455.73529688082635,231.87948849867098 455.71277542365715,231.88073969073594 C455.6883619199507,231.87771851965226 455.6812820038758,231.9026813271921 455.66718320548534,231.91305706626736 C455.6395349125378,231.90439027245156 455.6494223815389,231.86850242200308 455.6746903578751,231.86450471077114 C455.70770962163806,231.85022281110287 455.74414677591994,231.85843185172416 455.7784477486275,231.85211485764012 C455.80328848864883,231.83764985669404 455.77258850773796,231.8066141901072 455.75311873853207,231.80331836710684 C455.7208318798803,231.79028765950352 455.68103786883876,231.78992145694792 455.65631919633597,231.7624867821578 C455.6465537948534,231.74106393265538 455.6490561789833,231.70194129296578 455.6755448305048,231.69443414057605 C455.68750744732097,231.6741709324997 455.68500506319106,231.64807900041342 455.6818923414685,231.6255575432442 C455.6845778268762,231.60160179273225 455.6314174225554,231.61560904048383 455.6536947446875,231.59110398613848 C455.67383588524535,231.57569296192378 455.6997141991742,231.56623272923753 455.7251652767882,231.56659893179312 C455.7458557211794,231.56730082002468 455.7472594976425,231.59116501989774 455.724432871677,231.5853057790082 C455.7011790093966,231.59699374390766 455.7098458032124,231.63037921022624 455.7107002758421,231.65171050908975 C455.72193048754707,231.67322490923107 455.7523252996616,231.66187263000757 455.77210023766384,231.66507690236904 C455.80017576692626,231.66583982435986 455.81317595764995,231.66593137499876 455.8397256429307,231.67499488824978 C455.86670256452635,231.672980774194 455.85608269041404,231.63602483295836 455.8400918454863,231.6334919319488 C455.81549524050206,231.62805992737412 455.79114277055487,231.6141137133818 455.7773491409607,231.59266034699976 C455.7696588872932,231.56760598882101 455.78058393020183,231.54117837105878 455.7863821373321,231.5167343504727 C455.8037157249637,231.46369601367041 455.8508948208764,231.41367884795181 455.9098534323275,231.41355678043328 C455.94598541781306,231.41410608426668 455.9832160109654,231.4408999045845 455.9893804206513,231.47745912638493 C455.9940189863555,231.51587987784296 455.9788826140575,231.55500251753256 455.98870904929936,231.5928739651572 C456.01287841796875,231.6061793246772 455.97229096805677,231.6264730496332 455.97143649542704,231.64481369429268 C455.96118282387033,231.67151596397161 455.9846197874285,231.7025211136788 455.96453968062997,231.72656841482967 C455.95196672622114,231.74429872189648 455.9226705217734,231.75412515713833 455.92218225169927,231.77768418821506 C455.91498026810586,231.79892393643968 455.88165583554655,231.79733705869876 455.8649936192669,231.8111306882929 C455.8466224577278,231.8165626928676 455.8364908536896,231.84735422441736 455.86468845047057,231.84125084849074 C455.89215364214033,231.84054896025918 455.91949676629156,231.8302342549432 455.9469619579613,231.83496437128633 C455.96655379468575,231.84839179832488 455.9461074853316,231.87503303424455 455.92633254732937,231.8624295629561 C455.9160178420134,231.86258214735426 455.8779327762313,231.86773950001225 455.890932966955,231.87881712731905 C455.9233418931253,231.8864158303477 455.9585583722219,231.8962117487099 455.97955398540944,231.92422624421306 C455.9992678896524,231.95050127757713 455.9555066842586,231.9567572379019 455.9468398904428,231.93365596001968 C455.9104027361609,231.90393251925707 455.85553338658065,231.88788064057007 455.81280975509435,231.91388102201745 C455.78687040740624,231.9247145142872 455.7929127495736,231.95263745915145 455.79010519664735,231.97348048794083 C455.77960739005357,231.9849853515625 455.76508135534823,231.96868933783844 455.7620907011442,231.95852721692063 L455.7620907011442,231.95852721692063 zM455.951478456147,231.66770135401748 C455.94275062857196,231.65134430653416 455.89917252445593,231.63529242784716 455.89319121604785,231.65879042516463 C455.8965480728075,231.68271565879695 455.93029974168167,231.6883917984087 455.9483047006652,231.67862639692612 C455.95160052366555,231.67615452967584 455.9529432663694,231.67154648085125 455.951478456147,231.66770135401748 L455.951478456147,231.66770135401748 z"/></g></svg>