<svg xmlns:dc="http://purl.org/dc/elements/1.1/" xmlns:cc="http://creativecommons.org/ns#" xmlns:rdf="http://www.w3.org/1999/02/22-rdf-syntax-ns#" xmlns:svg="http://www.w3.org/2000/svg" xmlns="http://www.w3.org/2000/svg" xmlns:sodipodi="http://sodipodi.sourceforge.net/DTD/sodipodi-0.dtd" xmlns:inkscape="http://www.inkscape.org/namespaces/inkscape" xml:space="preserve" height="277.6317138671875" width="661.4358520507812" version="1.1" enable-background="new 0 0 666.24 275.907" inkscape:version="0.48.4 r9939" sodipodi:docname="Graduation_hat.svg"><rect id="backgroundrect" width="100%" height="100%" x="0" y="0" fill="none" stroke="none"/><metadata id="metadata32"><rdf:RDF><cc:Work rdf:about=""><dc:format>image/svg+xml</dc:format><dc:type rdf:resource="http://purl.org/dc/dcmitype/StillImage"/></cc:Work></rdf:RDF></metadata><defs id="defs30"/><sodipodi:namedview pagecolor="#ffffff" bordercolor="#666666" borderopacity="1" objecttolerance="10" gridtolerance="10" guidetolerance="10" inkscape:pageopacity="0" inkscape:pageshadow="2" inkscape:window-width="1920" inkscape:window-height="1138" id="namedview28" showgrid="false" inkscape:zoom="0.67076653" inkscape:cx="330.21" inkscape:cy="123.10322" inkscape:window-x="-8" inkscape:window-y="-8" inkscape:window-maximized="1" inkscape:current-layer="Layer_2" fit-margin-top="0" fit-margin-left="0" fit-margin-right="0" fit-margin-bottom="0" showguides="true" inkscape:guide-bbox="true"><sodipodi:guide orientation="0,1" position="500.73417,201.34785" id="guide3777"/></sodipodi:namedview>


<g class="currentLayer"><title>Layer 1</title><g id="Layer_3" class="" fill-opacity="1" fill="#ed961c" opacity="0.96" transform="rotate(-0.2710128724575043 355.1149902343877,230.76950073241457) ">
	<path d="m272.17999267578125,252.8211212158203 c0,0 19.51365089416504,-78.234375 78.91072845458984,-78.7127456665039 c59.39707565307617,-0.47837427258491516 84.11612701416016,24.566537857055664 86.95928955078125,88.45890045166016 c-55.07685852050781,-23.678375244140625 -99.06646728515625,9.104673385620117 -115.29041290283203,25.34173583984375 c-16.720703125,-23.417285919189453 -17.962602615356445,-34.25275421142578 -50.5796012878418,-35.08846664428711 z" id="path5" inkscape:connector-curvature="0" fill="#ed961c" opacity="0.96"/>
</g><path fill="#f79707" stroke="#000000" stroke-dashoffset="" fill-rule="nonzero" marker-start="" marker-mid="" marker-end="" id="svg_2" d="M435.1263732910156,334.2112121582031 C435.1263732910156,334.2112121582031 448.6417236328125,274.5065002441406 435.1263732910156,254.25726318359375 C421.70672607421875,234.01025390625 416.3963928222656,220.51132202148438 386.75823974609375,210.8551025390625 S368.028564453125,203.1705322265625 346.5000305175781,204.10501098632812 C324.9709777832031,205.14373779296875 307.1106262207031,217.60385131835938 307.1106262207031,224.35348510742188 C307.1106262207031,224.35348510742188 293.6912536621094,225.28851318359375 288.2854309082031,231.10263061523438 C282.8790283203125,236.91766357421875 273.9971008300781,263.81134033203125 273.9971008300781,270.5599365234375 S278.4383239746094,322.5813903808594 282.8790283203125,332.2381591796875 L277.569580078125,334.2112121582031 C273.12841796875,390.0751647949219 295.5256652832031,396.82373046875 295.5256652832031,396.82373046875 C303.539306640625,448.84552001953125 311.6485595703125,426.6247863769531 311.6485595703125,440.12371826171875 S303.539306640625,448.84552001953125 303.539306640625,448.84552001953125 S296.3946533203125,470.02783203125 278.5342102050781,477.71142578125 C260.57763671875,485.395263671875 161.23573303222656,526.825439453125 153.12649536132812,535.4447631835938 C145.01686096191406,544.1668090820312 145.98211669921875,584.5586547851562 145.98211669921875,584.5586547851562 L572.2156982421875,584.5586547851562 C572.2156982421875,584.5586547851562 573.0843505859375,544.1668090820312 565.0707397460938,535.4447631835938 C556.9616088867188,526.7212524414062 457.52386474609375,485.395263671875 439.662841796875,477.71142578125 C421.70672607421875,470.02783203125 414.56195068359375,448.84552001953125 414.56195068359375,448.84552001953125 S406.5496826171875,453.62255859375 406.5496826171875,440.12371826171875 S414.56195068359375,448.84552001953125 422.67132568359375,396.82373046875 C422.67132568359375,396.82373046875 444.9730529785156,390.0751647949219 440.53155517578125,334.2112121582031 L435.1263732910156,334.2112121582031 z" class="" fill-opacity="1" transform="rotate(0.8846893310546875 351.08105468749073,426.33184814453074) "/><g class="" id="svg_1" fill="#fc8f0a" fill-opacity="1" opacity="1">
	
	<path d="m463.60333251953125,258.90028381347656 c0,-12.306553840637207 -8.161064147949219,-30.060806274414062 -12.181184768676758,-26.292278289794922 " id="path10" inkscape:connector-curvature="0" fill="#fc8f0a" fill-opacity="1" opacity="1"/>
	<circle cy="260.40008544921875" cx="463.78924560546875" r="2.3893887996673584" id="circle12" sodipodi:cx="552.66998" sodipodi:cy="150.34" sodipodi:rx="5.579" sodipodi:ry="5.579" d="m 558.24898,150.34 c 0,3.08119 -2.4978,5.579 -5.579,5.579 -3.08119,0 -5.579,-2.49781 -5.579,-5.579 0,-3.0812 2.49781,-5.579 5.579,-5.579 3.0812,0 5.579,2.4978 5.579,5.579 z" fill="#fc8f0a" fill-opacity="1" opacity="1"/>
	<circle cy="266.68255615234375" cx="463.83831787109375" r="3.4669480323791504" id="circle14" sodipodi:cx="552.78003" sodipodi:cy="156.88" sodipodi:rx="8.0950003" sodipodi:ry="8.0950003" d="m 560.87503,156.88 c 0,4.47075 -3.62426,8.09501 -8.095,8.09501 -4.47075,0 -8.095,-3.62426 -8.095,-8.09501 0,-4.47074 3.62425,-8.095 8.095,-8.095 4.47074,0 8.095,3.62426 8.095,8.095 z" fill="#fc8f0a" fill-opacity="1" opacity="1"/>
	<circle cy="273.53179931640625" cx="463.83831787109375" r="3.4669480323791504" id="circle16" sodipodi:cx="552.78003" sodipodi:cy="164.00999" sodipodi:rx="8.0950003" sodipodi:ry="8.0950003" d="m 560.87503,164.00999 c 0,4.47075 -3.62426,8.095 -8.095,8.095 -4.47075,0 -8.095,-3.62425 -8.095,-8.095 0,-4.47074 3.62425,-8.095 8.095,-8.095 4.47074,0 8.095,3.62426 8.095,8.095 z" fill="#fc8f0a" fill-opacity="1" opacity="1"/>
	<path d="m472.3048095703125,305.5013732910156 c-0.3285825848579407,-0.9615846872329712 -0.7124485969543457,-1.750256896018982 -0.8047374486923218,-2.5667872428894043 c-0.721365749835968,-6.367976665496826 -2.9157800674438477,-25.745683670043945 -5.9318742752075195,-27.5084285736084 c-0.4079417586326599,-0.2382347732782364 -0.6585032939910889,-1.2305593490600586 -0.5599724650382996,-2.2171201705932617 c0.09853027015924454,-0.9865608215332031 0.5100384950637817,-1.5888721942901611 0.9170886874198914,-1.3535192012786865 c3.425818920135498,2.0009796619415283 5.4811320304870605,16.344057083129883 7.039781093597412,30.108837127685547 c0.11101367324590683,0.9788758754730225 -0.012483462691307068,2.1796557903289795 -0.17699776589870453,3.3477747440338135 c-0.022291895002126694,0.160424143075943 -0.13196805119514465,1.1489062309265137 -0.19795186817646027,1.1489062309265137 l-0.28533628582954407,-0.9510178565979004 z" id="path18" inkscape:connector-curvature="0" fill="#fc8f0a" fill-opacity="1" opacity="1"/>
	<path d="m470.40997314453125,308.1526794433594 c-0.3285825848579407,-0.9615846872329712 -0.7124485969543457,-1.750256896018982 -0.8047374486923218,-2.5667872428894043 c-0.721365749835968,-6.367976665496826 -2.9157800674438477,-25.745683670043945 -5.9318742752075195,-27.5084285736084 c-0.4079417586326599,-0.2382347732782364 -0.6585032939910889,-1.2305593490600586 -0.5599724650382996,-2.2171201705932617 c0.09853027015924454,-0.9865608215332031 0.5100384950637817,-1.5888721942901611 0.9170886874198914,-1.3535192012786865 c3.425818920135498,2.0009796619415283 5.4811320304870605,16.344057083129883 7.039781093597412,30.108837127685547 c0.11101367324590683,0.9788758754730225 -0.012483462691307068,2.1796557903289795 -0.17699776589870453,3.3477747440338135 c-0.022291895002126694,0.160424143075943 -0.13196805119514465,1.1489062309265137 -0.19795186817646027,1.1489062309265137 l-0.2897946834564209,-0.9510178565979004 z" id="path20" inkscape:connector-curvature="0" fill="#fc8f0a" fill-opacity="1" opacity="1"/>
	<path d="m465.78216552734375,309.44952392578125 c0.06687569618225098,-1.1844494342803955 0.22158147394657135,-2.277639627456665 0.11680958420038223,-3.0874454975128174 c-0.8225710391998291,-6.311299800872803 -3.3241677284240723,-25.515134811401367 -1.0976530313491821,-30.239482879638672 c0.3004947602748871,-0.6397754549980164 0.2924697995185852,-1.7685089111328125 -0.016941843554377556,-2.524519920349121 c-0.3107490837574005,-0.7540895342826843 -0.8065213561058044,-0.8453492522239685 -1.1079074144363403,-0.20941613614559174 c-2.5287928581237793,5.367006301879883 -1.0521776676177979,20.034774780273438 0.7249324321746826,33.67851257324219 c0.12617212533950806,0.9692695736885071 0.5078095197677612,1.8847441673278809 0.9166428446769714,2.729132652282715 c0.05662143975496292,0.11623553931713104 0.37673330307006836,0.8616794943809509 0.4346921145915985,0.7915541529655457 l0.026750288903713226,-1.1335363388061523 z" id="path22" inkscape:connector-curvature="0" fill="#fc8f0a" fill-opacity="1" opacity="1"/>
	<path d="m462.95556640625,308.9692077636719 c0.06687569618225098,-1.1844494342803955 0.22158147394657135,-2.277639627456665 0.11680958420038223,-3.0874454975128174 c-0.8225710391998291,-6.311299800872803 -3.3241677284240723,-25.515134811401367 -1.0976530313491821,-30.239482879638672 c0.3004947602748871,-0.6397754549980164 0.2924697995185852,-1.7685089111328125 -0.016941843554377556,-2.524519920349121 c-0.3107490837574005,-0.7540895342826843 -0.8065213561058044,-0.8453492522239685 -1.1079074144363403,-0.20941613614559174 c-2.5287928581237793,5.367006301879883 -1.0521776676177979,20.034774780273438 0.7249324321746826,33.67851257324219 c0.12617212533950806,0.9692695736885071 0.5078095197677612,1.8847441673278809 0.9166428446769714,2.729132652282715 c0.05662143975496292,0.11623553931713104 0.37673330307006836,0.8616794943809509 0.4346921145915985,0.7915541529655457 l0.026750288903713226,-1.1335363388061523 z" id="path24" inkscape:connector-curvature="0" fill="#fc8f0a" fill-opacity="1" opacity="1"/>
	<path d="m468.5909423828125,307.7012023925781 c0.09139680117368698,-1.4678335189819336 0.30227816104888916,-2.8223133087158203 0.15871833264827728,-3.825204372406006 c-1.1217284202575684,-7.820439338684082 -4.533726215362549,-31.6141357421875 -1.496678113937378,-37.468177795410156 c0.409725159406662,-0.792514443397522 0.399470716714859,-2.19022274017334 -0.023183586075901985,-3.1277916431427 c-0.42399194836616516,-0.9346873760223389 -1.0998823642730713,-1.047080159187317 -1.5113906860351562,-0.25936827063560486 c-3.449002504348755,6.649439334869385 -1.4355982542037964,24.824443817138672 0.9888690114021301,41.728546142578125 c0.17209360003471375,1.200779914855957 0.6923863291740417,2.3352768421173096 1.2501295804977417,3.3813962936401367 c0.0771300420165062,0.1440935730934143 0.5131595134735107,1.0682138204574585 0.59251868724823,0.9807971119880676 l0.04012542963027954,-1.4121172428131104 z" id="path26" inkscape:connector-curvature="0" fill="#fc8f0a" fill-opacity="1" opacity="1"/>
<path d="m508.65191650390625,180.96835327148438 c4.130768775939941,1.8947827816009521 5.918458461761475,10.367444038391113 -0.28304022550582886,15.033935546875 c-29.018850326538086,21.8360538482666 -147.81370544433594,96.35694885253906 -147.81370544433594,96.35694885253906 c-2.795604705810547,1.8221211433410645 -6.803781509399414,2.4381885528564453 -11.198526382446289,-0.09567824006080627 c0,0 -123.91545104980469,-76.78691101074219 -128.5454559326172,-81.80022430419922 C218.916748046875,208.4120635986328 218.50466918945312,201.20962524414062 221.25131225585938,199.06607055664062 C224.3316650390625,196.662109375 352.82196044921875,120.9451904296875 356.4408874511719,118.47330474853516 c4.369657516479492,-2.9846584796905518 7.280966758728027,-2.7792954444885254 11.88555908203125,-0.7546593546867371 c0,0 110.87864685058594,49.74246597290039 140.325439453125,63.24970626831055 z" id="path8" inkscape:connector-curvature="0" sodipodi:nodetypes="sssssssss" fill="#fc8f0a" fill-opacity="1" opacity="1"/></g><path fill="#f79707" stroke="#000000" stroke-dashoffset="" fill-rule="nonzero" marker-start="" marker-mid="" marker-end="" id="svg_3" d="M431.04254150390625,476.03900146484375 C419.5685119628906,495.9158020019531 391.95306396484375,509.9610900878906 359.6030578613281,509.9610900878906 C327.2362976074219,509.9610900878906 299.6208801269531,495.9158020019531 288.16351318359375,476.03900146484375 L113.23799133300781,528.2259521484375 L162.4537353515625,609.8192138671875 L216.50511169433594,593.6878051757812 L216.50511169433594,760.0390014648438 L504.6051025390625,760.0390014648438 L504.6051025390625,594.2803955078125 L556.7189331054688,609.8310546875 L605.9513549804688,528.23779296875 L431.04254150390625,476.03900146484375 z" class=""/></g></svg>